<?xml version="1.0" encoding="UTF-8"?>
<svg id="_レイヤー_2" data-name="レイヤー 2" xmlns="http://www.w3.org/2000/svg" viewBox="0 0 1019.79 201.39">
  <defs>
    <style>
      .cls-1 {
        fill: #2c2c2c;
      }

      .cls-1, .cls-2, .cls-3 {
        stroke-width: 0px;
      }

      .cls-2 {
        fill: #3fa9f5;
      }

      .cls-3 {
        fill: #fff;
      }
    </style>
  </defs>
  <circle class="cls-3" cx="100.32" cy="100.32" r="100.32"/>
  <path class="cls-1" d="m148.76,100.06v-53.38l49.24,30.83C187.67,33.11,147.88,0,100.32,0,44.91,0,0,44.91,0,100.32s44.91,100.32,100.32,100.32c37.09,0,69.46-20.15,86.82-50.08l-38.37-50.49Zm-9.81-.03l-102.98,44.18L118.06,46h20.89v54.03Z"/>
  <path class="cls-1" d="m253.7,83.4v30.48c0,25.17,19.41,47.11,43.45,47.57,17.2.46,32.2-9.47,39.92-24.02.44-.92,0-2.31-1.1-2.31h-31.32c-1.32,0-2.43-.92-2.43-2.54v-13.63c0-1.39,1.1-2.54,2.43-2.54h51.61c1.32,0,2.43,1.15,2.43,2.54v58.66c0,1.39-1.1,2.54-2.43,2.54h-11.25c-1.32,0-2.43-.92-2.43-2.31v-.23c0-4.39-4.85-7.39-8.6-4.85-7.28,5.08-15.44,8.77-24.26,10.39-39.92,7.39-76.31-25.63-76.31-68.12v-30.94c0-37.87,29.11-69.51,65.28-69.28,28.89.23,53.38,20.55,61.31,48.03.44,1.39-.44,2.77-1.76,2.77h-15.66c-1.76,0-3.31-.92-3.97-2.54-7.28-16.4-23.16-27.94-41.68-27.25-23.82.69-43.23,22.63-43.23,47.57Z"/>
  <path class="cls-1" d="m413.61,44.44c1.1,0,1.98,1.16,1.98,2.31v17.78c0,1.16-.88,2.08-1.98,2.08h-21.17c-1.1,0-2.21-.92-2.21-2.08v-17.78c0-1.15,1.1-2.31,2.21-2.31h21.17Zm.44,137.4c0,1.16-.88,2.08-1.99,2.08h-18.08c-1.1,0-1.98-.92-1.98-2.08l.88-97.45c0-1.39,1.1-2.31,2.2-2.31h15.88c1.1,0,1.98.92,1.98,2.31l1.1,97.45Z"/>
  <path class="cls-1" d="m454.64,108.63c0-3.92-3.09-7.16-7.06-7.16h-3.31c-1.1,0-1.98-.92-1.98-2.08v-14.55c0-1.16.88-2.08,1.98-2.08h9.04c.66,0,1.32-.46,1.32-1.16v-6.93c0-28.4,20.51-51.73,46.76-54.73,1.1,0,1.98.69,1.98,1.85v14.55c0,1.39-.88,2.77-2.43,3-14.56,3.46-25.36,17.09-25.36,33.48v8.77c0,.69.44,1.16,1.1,1.16l24.48.23c1.1,0,2.21.92,2.21,2.08v14.32c0,1.39-1.1,2.31-2.21,2.31l-24.48-.23c-.66,0-1.1.46-1.1,1.16l-.22,79.67c0,1.15-.88,2.08-1.98,2.08h-16.76c-1.1,0-1.99-.92-1.99-2.08v-73.67Z"/>
  <path class="cls-1" d="m581.46,82.54c1.1,0,2.21.92,2.21,2.31v14.09c0,1.15-1.1,2.31-2.21,2.31h-23.6c-.88,0-1.32.46-1.32,1.16v79.67c0,1.16-.88,2.31-2.21,2.31h-16.98c-1.32,0-2.21-1.15-2.21-2.31v-74.13c0-3.69-2.87-6.7-6.4-6.7h-4.19c-1.1,0-1.98-1.15-1.98-2.31v-14.09c0-1.39.88-2.31,1.98-2.31h9.48c.66,0,1.1-.46,1.1-1.39v-34.18c0-1.15.88-2.08,2.21-2.08h16.98c1.32,0,2.21.92,2.21,2.08v34.18c0,.92.44,1.39,1.32,1.39h23.6Z"/>
  <g>
    <path class="cls-2" d="m696.15,20.25c0-1.41,1.17-2.58,2.58-2.58h38.87c1.41,0,2.34,1.17,2.34,2.58v104.92c0,33.25-26.7,60.19-59.95,60.19s-60.18-27.63-60.18-60.19v-14.99c0-1.17,1.17-2.34,2.58-2.34h17.33c1.41,0,2.34,1.17,2.34,2.34v14.99c0,21.08,17.1,38.17,38.17,38.17s38.41-17.1,38.41-38.17V46.95c0-5.62-4.68-10.07-10.07-10.07h-9.84c-1.4,0-2.58-1.17-2.58-2.58v-14.05Z"/>
    <path class="cls-2" d="m881.39,128.91c0,30.91-25.06,55.97-55.97,55.97s-56.2-25.06-56.2-55.97,25.29-55.97,56.2-55.97,55.97,25.06,55.97,55.97Zm-21.08-1.87c0-19.2-15.69-34.89-34.89-34.89s-35.13,15.69-35.13,34.89,15.69,35.13,35.13,35.13,34.89-15.69,34.89-35.13Z"/>
    <path class="cls-2" d="m927.52,181.37h-16.16c-1.41,0-2.58-1.17-2.58-2.34V20.48c0-1.17.94-2.11,2.11-2.11h17.1c.94,0,1.87.94,1.87,2.11v63c0,1.41,1.41,2.11,2.58,1.17,9.13-6.56,20.37-10.54,32.32-10.54,30.44,0,55.03,25.06,55.03,55.74s-24.59,55.97-55.03,55.97c-11.24,0-21.54-3.51-30.21-9.37-2.11-1.17-4.68.23-4.68,2.58,0,1.17-.94,2.34-2.34,2.34Zm37.23-17.33c19.2,0,33.49-15.92,33.49-35.36s-14.28-35.36-33.49-35.36-34.66,15.93-34.66,35.36,15.46,35.36,34.66,35.36Z"/>
  </g>
</svg>