<?xml version="1.0" encoding="UTF-8"?>
<svg id="_レイヤー_1" data-name="レイヤー 1" xmlns="http://www.w3.org/2000/svg" viewBox="0 0 959.28 195.09">
  <defs>
    <style>
      .cls-1 {
        fill: #3fa9f5;
      }

      .cls-1, .cls-2 {
        stroke-width: 0px;
      }

      .cls-2 {
        fill: #1e1e21;
      }
    </style>
  </defs>
  <path class="cls-2" d="m100.11,128.09l40.38,41.95c.96,1,2.55,1.02,3.54.06l44.05-42.63c.49-.47.76-1.12.76-1.8V2.5c0-2.46-3.18-3.44-4.57-1.41l-84.44,123.85c-.67.98-.56,2.29.26,3.14Z"/>
  <path class="cls-2" d="m103.21,110.55l40.45-61.92c.74-1.14.44-2.67-.68-3.43l-40.45-27.59c-1.66-1.13-3.91.06-3.91,2.07v89.51c0,2.49,3.23,3.45,4.59,1.37Z"/>
  <path class="cls-2" d="m151.03,178.67l35.92,14.94c1.1.46,2.37.07,3.04-.92l69.95-104.4c1.3-1.95-1.07-4.25-2.97-2.88l-56.56,40.68c-.1.07-.19.15-.28.23l-49.87,48.24c-1.29,1.25-.88,3.41.78,4.11Z"/>
  <path class="cls-2" d="m100.52,193.55l33.91-15.73c1.56-.72,1.94-2.76.75-4l-45.29-47.06c-.14-.15-.3-.28-.47-.39l-47.25-29.59c-1.67-1.04-3.83.15-3.83,2.12v15.22c0,.55.18,1.08.51,1.51l58.63,77.15c.71.94,1.98,1.25,3.04.76Z"/>
  <path class="cls-2" d="m32.06,94.14h-4.39c-.74,0-1.44.33-1.92.9L.5,125.24c-1.42,1.7.41,4.15,2.44,3.28l30.1-12.91c.92-.39,1.51-1.3,1.51-2.3v-16.68c0-1.38-1.12-2.5-2.5-2.5Z"/>
  <path class="cls-2" d="m293.14,106.04v26.51c0,21.89,16.88,40.96,37.78,41.36,14.96.4,28-8.23,34.71-20.88.38-.8,0-2.01-.96-2.01h-27.23c-1.15,0-2.11-.8-2.11-2.21v-11.85c0-1.2.96-2.21,2.11-2.21h44.88c1.15,0,2.11,1,2.11,2.21v51c0,1.2-.96,2.21-2.11,2.21h-9.78c-1.15,0-2.11-.8-2.11-2.01v-.2c0-3.82-4.22-6.43-7.48-4.22-6.33,4.42-13.42,7.63-21.1,9.04-34.71,6.43-66.36-22.29-66.36-59.24v-26.91c0-32.93,25.31-60.44,56.77-60.24,25.12.2,46.41,17.87,53.32,41.77.38,1.2-.38,2.41-1.53,2.41h-13.62c-1.53,0-2.88-.8-3.45-2.21-6.33-14.26-20.14-24.3-36.25-23.69-20.71.6-37.59,19.68-37.59,41.36Z"/>
  <path class="cls-2" d="m432.19,72.15c.96,0,1.73,1,1.73,2.01v15.46c0,1-.77,1.81-1.73,1.81h-18.41c-.96,0-1.92-.8-1.92-1.81v-15.46c0-1,.96-2.01,1.92-2.01h18.41Zm.38,119.47c0,1-.77,1.81-1.73,1.81h-15.73c-.96,0-1.73-.8-1.73-1.81l.77-84.74c0-1.2.96-2.01,1.92-2.01h13.81c.96,0,1.73.8,1.73,2.01l.96,84.74Z"/>
  <path class="cls-2" d="m467.86,127.98c0-3.41-2.68-6.22-6.14-6.22h-2.88c-.96,0-1.73-.8-1.73-1.81v-12.65c0-1,.77-1.81,1.73-1.81h7.86c.58,0,1.15-.4,1.15-1v-6.02c0-24.7,17.84-44.98,40.66-47.59.96,0,1.73.6,1.73,1.61v12.65c0,1.2-.77,2.41-2.11,2.61-12.66,3.01-22.05,14.86-22.05,29.12v7.63c0,.6.38,1,.96,1l21.29.2c.96,0,1.92.8,1.92,1.81v12.45c0,1.2-.96,2.01-1.92,2.01l-21.29-.2c-.58,0-.96.4-.96,1l-.19,69.27c0,1-.77,1.81-1.73,1.81h-14.58c-.96,0-1.73-.8-1.73-1.81v-64.06Z"/>
  <path class="cls-2" d="m578.14,105.29c.96,0,1.92.8,1.92,2.01v12.25c0,1-.96,2.01-1.92,2.01h-20.52c-.77,0-1.15.4-1.15,1v69.27c0,1-.77,2.01-1.92,2.01h-14.77c-1.15,0-1.92-1-1.92-2.01v-64.46c0-3.21-2.49-5.82-5.56-5.82h-3.64c-.96,0-1.73-1-1.73-2.01v-12.25c0-1.2.77-2.01,1.73-2.01h8.25c.58,0,.96-.4.96-1.2v-29.72c0-1,.77-1.81,1.92-1.81h14.77c1.15,0,1.92.8,1.92,1.81v29.72c0,.8.38,1.2,1.15,1.2h20.52Z"/>
  <g>
    <path class="cls-1" d="m677.86,51.12c0-1.22,1.02-2.24,2.24-2.24h33.8c1.22,0,2.04,1.02,2.04,2.24v91.23c0,28.92-23.21,52.33-52.13,52.33s-52.33-24.03-52.33-52.33v-13.03c0-1.02,1.02-2.04,2.24-2.04h15.07c1.22,0,2.04,1.02,2.04,2.04v13.03c0,18.33,14.87,33.19,33.19,33.19s33.4-14.87,33.4-33.19v-68.01c0-4.89-4.07-8.76-8.76-8.76h-8.55c-1.22,0-2.24-1.02-2.24-2.24v-12.22Z"/>
    <path class="cls-1" d="m838.93,145.61c0,26.88-21.79,48.67-48.67,48.67s-48.87-21.79-48.87-48.67,21.99-48.67,48.87-48.67,48.67,21.79,48.67,48.67Zm-18.33-1.63c0-16.7-13.64-30.34-30.34-30.34s-30.55,13.64-30.55,30.34,13.64,30.55,30.55,30.55,30.34-13.64,30.34-30.55Z"/>
    <path class="cls-1" d="m879.05,191.22h-14.05c-1.22,0-2.24-1.02-2.24-2.04V51.33c0-1.02.81-1.83,1.83-1.83h14.87c.81,0,1.63.81,1.63,1.83v54.78c0,1.22,1.22,1.83,2.24,1.02,7.94-5.7,17.72-9.16,28.1-9.16,26.47,0,47.85,21.79,47.85,48.47s-21.38,48.67-47.85,48.67c-9.77,0-18.73-3.05-26.27-8.15-1.83-1.02-4.07.2-4.07,2.24,0,1.02-.81,2.04-2.04,2.04Zm32.38-15.07c16.7,0,29.12-13.85,29.12-30.75s-12.42-30.75-29.12-30.75-30.14,13.85-30.14,30.75,13.44,30.75,30.14,30.75Z"/>
  </g>
</svg>