<?xml version="1.0" encoding="UTF-8"?>
<svg id="_レイヤー_2" data-name="レイヤー 2" xmlns="http://www.w3.org/2000/svg" viewBox="0 0 1080.75 204.23">
  <defs>
    <style>
      .cls-1 {
        fill: #2c2c2c;
      }

      .cls-1, .cls-2, .cls-3 {
        stroke-width: 0px;
      }

      .cls-2 {
        fill: #3fa9f5;
      }

      .cls-3 {
        fill: #fff;
      }
    </style>
  </defs>
  <circle class="cls-3" cx="100.32" cy="100.32" r="100.32"/>
  <path class="cls-1" d="m148.76,100.06v-53.38l49.24,30.83C187.67,33.11,147.88,0,100.32,0,44.91,0,0,44.91,0,100.32s44.91,100.32,100.32,100.32c37.09,0,69.46-20.15,86.82-50.08l-38.37-50.49Zm-9.81-.03l-102.98,44.18L118.06,46h20.89v54.03Z"/>
  <path class="cls-1" d="m258.23,94.27v32.73c0,27.02,20.84,50.58,46.65,51.07,18.47.5,34.57-10.17,42.86-25.79.47-.99,0-2.48-1.18-2.48h-33.62c-1.42,0-2.61-.99-2.61-2.73v-14.63c0-1.49,1.18-2.73,2.61-2.73h55.41c1.42,0,2.6,1.24,2.6,2.73v62.98c0,1.49-1.18,2.73-2.6,2.73h-12.08c-1.42,0-2.61-.99-2.61-2.48v-.25c0-4.71-5.21-7.93-9.24-5.21-7.81,5.45-16.58,9.42-26.05,11.16-42.86,7.93-81.93-27.52-81.93-73.14v-33.22c0-40.66,31.26-74.63,70.09-74.38,31.02.25,57.31,22.07,65.83,51.57.47,1.49-.47,2.97-1.89,2.97h-16.81c-1.89,0-3.55-.99-4.26-2.73-7.81-17.6-24.86-30-44.76-29.26-25.57.74-46.41,24.3-46.41,51.07Z"/>
  <path class="cls-1" d="m429.92,52.43c1.18,0,2.13,1.24,2.13,2.48v19.09c0,1.24-.95,2.23-2.13,2.23h-22.73c-1.18,0-2.37-.99-2.37-2.23v-19.09c0-1.24,1.18-2.48,2.37-2.48h22.73Zm.47,147.52c0,1.24-.95,2.23-2.13,2.23h-19.42c-1.18,0-2.13-.99-2.13-2.23l.95-104.63c0-1.49,1.18-2.48,2.37-2.48h17.05c1.18,0,2.13.99,2.13,2.48l1.18,104.63Z"/>
  <path class="cls-1" d="m473.97,121.36c0-4.21-3.31-7.69-7.58-7.69h-3.55c-1.18,0-2.13-.99-2.13-2.23v-15.62c0-1.24.95-2.23,2.13-2.23h9.71c.71,0,1.42-.5,1.42-1.24v-7.44c0-30.49,22.02-55.54,50.2-58.76,1.18,0,2.13.75,2.13,1.98v15.62c0,1.49-.95,2.98-2.6,3.22-15.63,3.72-27.23,18.35-27.23,35.95v9.42c0,.74.47,1.24,1.18,1.24l26.28.25c1.18,0,2.37.99,2.37,2.23v15.37c0,1.49-1.18,2.48-2.37,2.48l-26.28-.25c-.71,0-1.18.5-1.18,1.24l-.24,85.54c0,1.24-.95,2.23-2.13,2.23h-18c-1.18,0-2.13-.99-2.13-2.23v-79.09Z"/>
  <path class="cls-1" d="m610.14,93.34c1.18,0,2.37.99,2.37,2.48v15.12c0,1.24-1.18,2.48-2.37,2.48h-25.34c-.95,0-1.42.5-1.42,1.24v85.54c0,1.24-.95,2.48-2.37,2.48h-18.23c-1.42,0-2.37-1.24-2.37-2.48v-79.59c0-3.97-3.08-7.19-6.87-7.19h-4.5c-1.18,0-2.13-1.24-2.13-2.48v-15.12c0-1.49.95-2.48,2.13-2.48h10.18c.71,0,1.18-.5,1.18-1.49v-36.69c0-1.24.95-2.23,2.37-2.23h18.23c1.42,0,2.37.99,2.37,2.23v36.69c0,.99.47,1.49,1.42,1.49h25.34Z"/>
  <g>
    <path class="cls-2" d="m733.27,26.46c0-1.51,1.26-2.77,2.77-2.77h41.74c1.51,0,2.51,1.26,2.51,2.77v112.64c0,35.7-28.66,64.62-64.37,64.62s-64.62-29.67-64.62-64.62v-16.09c0-1.26,1.26-2.51,2.77-2.51h18.61c1.51,0,2.51,1.26,2.51,2.51v16.09c0,22.63,18.35,40.98,40.98,40.98s41.24-18.35,41.24-40.98V55.13c0-6.03-5.03-10.81-10.81-10.81h-10.56c-1.51,0-2.77-1.26-2.77-2.77v-15.09Z"/>
    <path class="cls-2" d="m932.16,143.13c0,33.19-26.9,60.09-60.09,60.09s-60.34-26.9-60.34-60.09,27.16-60.09,60.34-60.09,60.09,26.9,60.09,60.09Zm-22.63-2.01c0-20.62-16.85-37.46-37.46-37.46s-37.72,16.85-37.72,37.46,16.85,37.72,37.72,37.72,37.46-16.85,37.46-37.72Z"/>
    <path class="cls-2" d="m981.68,199.45h-17.35c-1.51,0-2.77-1.26-2.77-2.51V26.72c0-1.26,1.01-2.26,2.26-2.26h18.35c1.01,0,2.01,1.01,2.01,2.26v67.64c0,1.51,1.51,2.26,2.77,1.26,9.81-7.04,21.88-11.31,34.7-11.31,32.69,0,59.09,26.9,59.09,59.84s-26.4,60.09-59.09,60.09c-12.07,0-23.13-3.77-32.44-10.06-2.26-1.26-5.03.25-5.03,2.77,0,1.26-1.01,2.51-2.51,2.51Zm39.98-18.61c20.62,0,35.96-17.1,35.96-37.97s-15.34-37.97-35.96-37.97-37.21,17.1-37.21,37.97,16.6,37.97,37.21,37.97Z"/>
  </g>
</svg>