<?xml version="1.0" encoding="UTF-8"?>
<svg id="_レイヤー_1" data-name="レイヤー 1" xmlns="http://www.w3.org/2000/svg" viewBox="0 0 120 89.34">
  <defs>
    <style>
      .cls-1 {
        fill: #1e1e21;
        stroke-width: 0px;
      }
    </style>
  </defs>
  <path class="cls-1" d="m46.15,59.05l18.62,19.34c.44.46,1.17.47,1.63.03l20.31-19.65c.22-.22.35-.52.35-.83V1.15c0-1.13-1.47-1.59-2.1-.65l-38.92,57.09c-.31.45-.26,1.06.12,1.45Z"/>
  <path class="cls-1" d="m47.58,50.96l18.65-28.54c.34-.53.2-1.23-.32-1.58l-18.65-12.72c-.76-.52-1.8.03-1.8.95v41.26c0,1.15,1.49,1.59,2.12.63Z"/>
  <path class="cls-1" d="m69.62,82.37l16.56,6.89c.51.21,1.09.03,1.4-.42l32.25-48.13c.6-.9-.49-1.96-1.37-1.33l-26.07,18.75s-.09.07-.13.11l-22.99,22.24c-.6.58-.41,1.57.36,1.89Z"/>
  <path class="cls-1" d="m46.34,89.22l15.63-7.25c.72-.33.89-1.27.35-1.84l-20.88-21.69c-.07-.07-.14-.13-.22-.18l-21.78-13.64c-.77-.48-1.76.07-1.76.98v7.02c0,.25.08.5.23.7l27.03,35.57c.33.43.91.58,1.4.35Z"/>
  <path class="cls-1" d="m14.78,43.4h-2.02c-.34,0-.67.15-.88.41L.23,57.74c-.65.78.19,1.91,1.13,1.51l13.88-5.95c.42-.18.7-.6.7-1.06v-7.69c0-.64-.52-1.15-1.15-1.15Z"/>
</svg>